<svg width="20" height="20" viewBox="0 0 20 20" fill="none" xmlns="http://www.w3.org/2000/svg">
<path d="M3.88708 15.8183L4.35024 14.932H4.35024L3.88708 15.8183ZM3.17711 15.09L2.28154 15.5349L3.17711 15.09ZM15.8231 15.09L14.9275 14.6451L15.8231 15.09ZM15.1126 15.8183L14.6494 14.932L15.1126 15.8183ZM15.1126 2.84832L15.5757 1.96205V1.96205L15.1126 2.84832ZM15.8231 3.5767L14.9275 4.02161L15.8231 3.5767ZM3.88708 2.84832L4.35024 3.7346L3.88708 2.84832ZM3.17711 3.5767L4.07269 4.02161L3.17711 3.5767ZM12.75 12.6667V11.6667C12.1977 11.6667 11.75 12.1144 11.75 12.6667H12.75ZM12.7516 12.6667L13.7514 12.6894C13.7575 12.4203 13.6549 12.1601 13.4667 11.9677C13.2786 11.7752 13.0208 11.6667 12.7516 11.6667V12.6667ZM12.7516 12.6683L12.7271 13.668C12.9925 13.6745 13.2496 13.5752 13.4418 13.392C13.6339 13.2087 13.7453 12.9566 13.7513 12.6911L12.7516 12.6683ZM12.75 12.6683H11.75C11.75 13.211 12.1829 13.6547 12.7255 13.668L12.75 12.6683ZM9.5 12.6667V11.6667C8.94772 11.6667 8.5 12.1144 8.5 12.6667H9.5ZM9.50163 12.6667L10.5014 12.6894C10.5075 12.4203 10.4049 12.1601 10.2167 11.9677C10.0286 11.7752 9.77079 11.6667 9.50163 11.6667V12.6667ZM9.50159 12.6683L9.47706 13.668C9.7425 13.6745 9.99963 13.5752 10.1918 13.392C10.3839 13.2087 10.4953 12.9566 10.5013 12.6911L9.50159 12.6683ZM9.5 12.6683H8.5C8.5 13.211 8.9329 13.6547 9.47547 13.668L9.5 12.6683ZM6.25 12.6667V11.6667C5.69772 11.6667 5.25 12.1144 5.25 12.6667H6.25ZM6.25162 12.6667L7.25137 12.6894C7.2575 12.4203 7.15489 12.1601 6.96674 11.9677C6.77859 11.7752 6.52079 11.6667 6.25162 11.6667V12.6667ZM6.25159 12.6683L6.22706 13.668C6.4925 13.6745 6.74963 13.5752 6.94177 13.392C7.13391 13.2087 7.24528 12.9566 7.25133 12.6911L6.25159 12.6683ZM6.25 12.6683H5.25C5.25 13.211 5.6829 13.6547 6.22547 13.668L6.25 12.6683ZM12.7516 9.33333H13.7516C13.7516 8.78105 13.3039 8.33333 12.7516 8.33333V9.33333ZM12.7516 9.335L12.7271 10.3347C12.9964 10.3413 13.2571 10.2389 13.45 10.0507C13.6428 9.86253 13.7516 9.60447 13.7516 9.335H12.7516ZM12.75 9.33496H11.75C11.75 9.87769 12.1829 10.3213 12.7255 10.3347L12.75 9.33496ZM12.75 9.33333V8.33333C12.1977 8.33333 11.75 8.78105 11.75 9.33333H12.75ZM9.5 9.33333V8.33333C8.94772 8.33333 8.5 8.78105 8.5 9.33333H9.5ZM9.50163 9.33333L10.5014 9.35611C10.5075 9.08701 10.4049 8.82681 10.2167 8.63433C10.0286 8.44184 9.77079 8.33333 9.50163 8.33333V9.33333ZM9.50159 9.335L9.47706 10.3347C9.7425 10.3412 9.99963 10.2419 10.1918 10.0586C10.3839 9.87538 10.4953 9.62323 10.5013 9.35778L9.50159 9.335ZM9.5 9.33496H8.5C8.5 9.87769 8.9329 10.3213 9.47547 10.3347L9.5 9.33496ZM6.25 9.33333V8.33333C5.69772 8.33333 5.25 8.78105 5.25 9.33333H6.25ZM6.25162 9.33333L7.25137 9.35611C7.2575 9.08701 7.15489 8.82681 6.96674 8.63433C6.77859 8.44184 6.52079 8.33333 6.25162 8.33333V9.33333ZM6.25159 9.335L6.22706 10.3347C6.4925 10.3412 6.74963 10.2419 6.94177 10.0586C7.13391 9.87538 7.24528 9.62323 7.25133 9.35778L6.25159 9.335ZM6.25 9.33496H5.25C5.25 9.87769 5.6829 10.3213 6.22547 10.3347L6.25 9.33496ZM3 5C2.44772 5 2 5.44772 2 6C2 6.55228 2.44772 7 3 7V5ZM16 7C16.5523 7 17 6.55228 17 6C17 5.44772 16.5523 5 16 5V7ZM13.75 1C13.75 0.447715 13.3023 0 12.75 0C12.1977 0 11.75 0.447715 11.75 1H13.75ZM11.75 2.66667C11.75 3.21895 12.1977 3.66667 12.75 3.66667C13.3023 3.66667 13.75 3.21895 13.75 2.66667H11.75ZM7.25 1C7.25 0.447715 6.80228 0 6.25 0C5.69772 0 5.25 0.447715 5.25 1H7.25ZM5.25 2.66667C5.25 3.21895 5.69772 3.66667 6.25 3.66667C6.80228 3.66667 7.25 3.21895 7.25 2.66667H5.25ZM5.60016 3.66667H13.4002V1.66667H5.60016V3.66667ZM15 5.33329V13.3333H17V5.33329H15ZM13.4002 15H5.60016V17H13.4002V15ZM4 13.3333V5.33329H2V13.3333H4ZM5.60016 15C5.12822 15 4.83582 14.9992 4.6162 14.9808C4.40894 14.9634 4.35733 14.9357 4.35024 14.932L3.42393 16.7046C3.76445 16.8825 4.11433 16.9457 4.44919 16.9738C4.77168 17.0008 5.16201 17 5.60016 17V15ZM2 13.3333C2 13.7839 1.99926 14.1805 2.0253 14.5074C2.0522 14.8452 2.11239 15.1945 2.28154 15.5349L4.07269 14.6451C4.06472 14.6291 4.03635 14.5667 4.01898 14.3486C4.00074 14.1196 4 13.8161 4 13.3333H2ZM4.35024 14.932C4.23474 14.8717 4.13614 14.7728 4.07269 14.6451L2.28154 15.5349C2.52968 16.0344 2.92791 16.4454 3.42393 16.7046L4.35024 14.932ZM15 13.3333C15 13.8162 14.9993 14.1197 14.9811 14.3487C14.9638 14.5669 14.9354 14.6292 14.9275 14.6451L16.7186 15.5349C16.8878 15.1943 16.948 14.845 16.9748 14.5072C17.0008 14.1804 17 13.7838 17 13.3333H15ZM13.4002 17C13.8383 17 14.2285 17.0008 14.5508 16.9738C14.8857 16.9457 15.2353 16.8825 15.5757 16.7046L14.6494 14.932C14.6422 14.9358 14.5907 14.9634 14.3837 14.9808C14.1643 14.9992 13.8721 15 13.4002 15V17ZM14.9275 14.6451C14.8644 14.7722 14.7656 14.8713 14.6494 14.932L15.5757 16.7046C16.0711 16.4457 16.4702 16.0351 16.7186 15.5349L14.9275 14.6451ZM13.4002 3.66667C13.8721 3.66667 14.1643 3.66748 14.3838 3.68588C14.5907 3.70322 14.6422 3.73084 14.6494 3.7346L15.5757 1.96205C15.2353 1.78415 14.8857 1.72094 14.5508 1.69287C14.2285 1.66585 13.8383 1.66667 13.4002 1.66667V3.66667ZM17 5.33329C17 4.88277 17.0008 4.48617 16.9748 4.1594C16.9479 3.82166 16.8878 3.47236 16.7186 3.13179L14.9275 4.02161C14.9354 4.03756 14.9638 4.09985 14.9811 4.31792C14.9993 4.54696 15 4.85039 15 5.33329H17ZM14.6494 3.7346C14.7655 3.79525 14.8643 3.89446 14.9275 4.02161L16.7186 3.13179C16.4702 2.63174 16.0712 2.22097 15.5757 1.96205L14.6494 3.7346ZM5.60016 1.66667C5.16203 1.66667 4.77169 1.66585 4.44921 1.69286C4.11436 1.72092 3.76447 1.78408 3.42393 1.96205L4.35024 3.7346C4.35731 3.7309 4.40891 3.70325 4.61617 3.68588C4.83581 3.66748 5.12821 3.66667 5.60016 3.66667V1.66667ZM4 5.33329C4 4.85049 4.00074 4.54705 4.01898 4.31807C4.03635 4.10006 4.06471 4.03767 4.07269 4.02161L2.28154 3.13179C2.1124 3.47225 2.05221 3.82145 2.0253 4.15925C1.99926 4.48608 2 4.88268 2 5.33329H4ZM3.42393 1.96205C2.9278 2.22132 2.52962 2.63241 2.28154 3.13179L4.07269 4.02161C4.13619 3.89378 4.23484 3.7949 4.35024 3.7346L3.42393 1.96205ZM12.75 13.6667H12.7516V11.6667H12.75V13.6667ZM11.7519 12.6439L11.7518 12.6456L13.7513 12.6911L13.7514 12.6894L11.7519 12.6439ZM12.7761 11.6686L12.7745 11.6686L12.7255 13.668L12.7271 13.668L12.7761 11.6686ZM13.75 12.6683V12.6667H11.75V12.6683H13.75ZM9.5 13.6667H9.50163V11.6667H9.5V13.6667ZM8.50188 12.6439L8.50185 12.6456L10.5013 12.6911L10.5014 12.6894L8.50188 12.6439ZM9.52612 11.6686L9.52453 11.6686L9.47547 13.668L9.47706 13.668L9.52612 11.6686ZM10.5 12.6683V12.6667H8.5V12.6683H10.5ZM6.25 13.6667H6.25162V11.6667H6.25V13.6667ZM5.25188 12.6439L5.25185 12.6456L7.25133 12.6911L7.25137 12.6894L5.25188 12.6439ZM6.27612 11.6686L6.27453 11.6686L6.22547 13.668L6.22706 13.668L6.27612 11.6686ZM7.25 12.6683V12.6667H5.25V12.6683H7.25ZM11.7516 9.33333V9.335H13.7516V9.33333H11.7516ZM12.7761 8.3353L12.7745 8.33526L12.7255 10.3347L12.7271 10.3347L12.7761 8.3353ZM13.75 9.33496V9.33333H11.75V9.33496H13.75ZM12.75 10.3333H12.7516V8.33333H12.75V10.3333ZM9.5 10.3333H9.50163V8.33333H9.5V10.3333ZM8.50188 9.31056L8.50185 9.31222L10.5013 9.35778L10.5014 9.35611L8.50188 9.31056ZM9.52612 8.3353L9.52453 8.33526L9.47547 10.3347L9.47706 10.3347L9.52612 8.3353ZM10.5 9.33496V9.33333H8.5V9.33496H10.5ZM6.25 10.3333H6.25162V8.33333H6.25V10.3333ZM5.25188 9.31056L5.25185 9.31222L7.25133 9.35778L7.25137 9.35611L5.25188 9.31056ZM6.27612 8.3353L6.27453 8.33526L6.22547 10.3347L6.22706 10.3347L6.27612 8.3353ZM7.25 9.33496V9.33333H5.25V9.33496H7.25ZM3 7H16V5H3V7ZM11.75 1V2.66667H13.75V1H11.75ZM5.25 1V2.66667H7.25V1H5.25Z" fill="url(#paint0_linear_0_403)"/>
<defs>
<linearGradient id="paint0_linear_0_403" x1="6.64184" y1="-0.777778" x2="7.36049" y2="20.7458" gradientUnits="userSpaceOnUse">
<stop stop-color="#215BEF"/>
<stop offset="1" stop-color="#86F8FF"/>
</linearGradient>
</defs>
</svg>
