<svg width="40" height="40" viewBox="0 0 40 40" fill="none" xmlns="http://www.w3.org/2000/svg">
<path d="M17 24.125L21.125 20M21.125 20L17 15.875M21.125 20L6 20M12.875 26.875C12.875 28.1563 12.875 28.797 13.0843 29.3024C13.3634 29.9762 13.8984 30.5116 14.5723 30.7907C15.0776 31 15.7187 31 17 31H23.6C25.1401 31 25.9099 31 26.4982 30.7002C27.0157 30.4366 27.4369 30.016 27.7006 29.4985C28.0003 28.9103 28 28.1401 28 26.5999V13.3999C28 11.8598 28.0003 11.0898 27.7006 10.5016C27.4369 9.98411 27.0157 9.56338 26.4982 9.29973C25.9099 9 25.1401 9 23.6 9H17C15.7187 9 15.0776 9 14.5723 9.20933C13.8984 9.48844 13.3634 10.0238 13.0843 10.6976C12.875 11.203 12.875 11.8436 12.875 13.125" stroke="white" stroke-width="2" stroke-linecap="round" stroke-linejoin="round"/>
</svg>
