<svg width="40" height="40" viewBox="0 0 40 40" fill="none" xmlns="http://www.w3.org/2000/svg">
<path d="M19 12C19 12.5523 19.4477 13 20 13C20.5523 13 21 12.5523 21 12H19ZM21 10C21 9.44772 20.5523 9 20 9C19.4477 9 19 9.44772 19 10H21ZM21 28C21 27.4477 20.5523 27 20 27C19.4477 27 19 27.4477 19 28H21ZM19 30C19 30.5523 19.4477 31 20 31C20.5523 31 21 30.5523 21 30H19ZM13.7071 15.1213C14.0976 15.5118 14.7308 15.5118 15.1213 15.1213C15.5118 14.7308 15.5118 14.0976 15.1213 13.7071L13.7071 15.1213ZM13.7071 12.2929C13.3166 11.9024 12.6834 11.9024 12.2929 12.2929C11.9024 12.6834 11.9024 13.3166 12.2929 13.7071L13.7071 12.2929ZM26.4351 25.0208C26.0446 24.6303 25.4114 24.6303 25.0209 25.0208C24.6304 25.4113 24.6304 26.0445 25.0209 26.435L26.4351 25.0208ZM26.4351 27.8492C26.8257 28.2397 27.4588 28.2397 27.8493 27.8492C28.2399 27.4587 28.2399 26.8255 27.8493 26.435L26.4351 27.8492ZM12 21C12.5523 21 13 20.5523 13 20C13 19.4477 12.5523 19 12 19V21ZM10 19C9.44772 19 9 19.4477 9 20C9 20.5523 9.44772 21 10 21V19ZM28 19C27.4477 19 27 19.4477 27 20C27 20.5523 27.4477 21 28 21V19ZM30 21C30.5523 21 31 20.5523 31 20C31 19.4477 30.5523 19 30 19V21ZM25.0214 13.7071C24.6309 14.0976 24.6309 14.7308 25.0214 15.1213C25.4119 15.5118 26.0451 15.5118 26.4356 15.1213L25.0214 13.7071ZM27.8498 13.7071C28.2404 13.3166 28.2404 12.6834 27.8498 12.2929C27.4593 11.9024 26.8261 11.9024 26.4356 12.2929L27.8498 13.7071ZM15.1218 26.435C15.5123 26.0445 15.5123 25.4113 15.1218 25.0208C14.7313 24.6303 14.0981 24.6303 13.7076 25.0208L15.1218 26.435ZM12.2934 26.435C11.9029 26.8255 11.9029 27.4587 12.2934 27.8492C12.6839 28.2397 13.3171 28.2397 13.7076 27.8492L12.2934 26.435ZM20 24C17.7909 24 16 22.2091 16 20H14C14 23.3137 16.6863 26 20 26V24ZM16 20C16 17.7909 17.7909 16 20 16V14C16.6863 14 14 16.6863 14 20H16ZM20 16C22.2091 16 24 17.7909 24 20H26C26 16.6863 23.3137 14 20 14V16ZM24 20C24 22.2091 22.2091 24 20 24V26C23.3137 26 26 23.3137 26 20H24ZM21 12V10H19V12H21ZM19 28V30H21V28H19ZM15.1213 13.7071L13.7071 12.2929L12.2929 13.7071L13.7071 15.1213L15.1213 13.7071ZM25.0209 26.435L26.4351 27.8492L27.8493 26.435L26.4351 25.0208L25.0209 26.435ZM12 19H10V21H12V19ZM28 21H30V19H28V21ZM26.4356 15.1213L27.8498 13.7071L26.4356 12.2929L25.0214 13.7071L26.4356 15.1213ZM13.7076 25.0208L12.2934 26.435L13.7076 27.8492L15.1218 26.435L13.7076 25.0208Z" fill="white"/>
</svg>
