<svg width="40" height="40" viewBox="0 0 40 40" fill="none" xmlns="http://www.w3.org/2000/svg">
<path d="M11.3193 30.4866L11.7732 29.5956L11.3193 30.4866ZM10.2634 29.4305L9.37239 29.8845L10.2634 29.4305ZM29.0702 29.4305L28.1792 28.9765L29.0702 29.4305ZM28.0136 30.4866L27.5596 29.5956L28.0136 30.4866ZM28.0136 11.6801L28.4676 10.7891L28.0136 11.6801ZM29.0702 12.7362L28.1792 13.1902L29.0702 12.7362ZM11.3193 11.6801L11.7732 12.5711L11.3193 11.6801ZM10.2634 12.7362L11.1544 13.1902L10.2634 12.7362ZM24.5 25.9167V24.9167C23.9477 24.9167 23.5 25.3644 23.5 25.9167H24.5ZM24.5024 25.9167L25.5021 25.94C25.5084 25.6708 25.4059 25.4105 25.2177 25.2179C25.0296 25.0253 24.7717 24.9167 24.5024 24.9167V25.9167ZM24.5024 25.9191L24.4784 26.9188C24.7437 26.9251 25.0006 26.8258 25.1926 26.6427C25.3845 26.4596 25.4959 26.2077 25.5021 25.9424L24.5024 25.9191ZM24.5 25.919H23.5C23.5 26.462 23.9333 26.9058 24.4761 26.9187L24.5 25.919ZM19.6667 25.9167V24.9167C19.1144 24.9167 18.6667 25.3644 18.6667 25.9167H19.6667ZM19.6691 25.9167L20.6688 25.94C20.6751 25.6708 20.5726 25.4105 20.3844 25.2179C20.1962 25.0253 19.9383 24.9167 19.6691 24.9167V25.9167ZM19.669 25.9191L19.6451 26.9188C19.9103 26.9251 20.1672 26.8258 20.3592 26.6427C20.5512 26.4596 20.6626 26.2077 20.6688 25.9424L19.669 25.9191ZM19.6667 25.919H18.6667C18.6667 26.462 19.0999 26.9058 19.6427 26.9187L19.6667 25.919ZM14.8333 25.9167V24.9167C14.281 24.9167 13.8333 25.3644 13.8333 25.9167H14.8333ZM14.8357 25.9167L15.8355 25.94C15.8418 25.6708 15.7392 25.4105 15.5511 25.2179C15.3629 25.0253 15.105 24.9167 14.8357 24.9167V25.9167ZM14.8357 25.9191L14.8118 26.9188C15.077 26.9251 15.3339 26.8258 15.5259 26.6427C15.7179 26.4596 15.8292 26.2077 15.8354 25.9424L14.8357 25.9191ZM14.8333 25.919H13.8333C13.8333 26.462 14.2666 26.9058 14.8094 26.9187L14.8333 25.919ZM24.5024 21.0833H25.5024C25.5024 20.531 25.0546 20.0833 24.5024 20.0833V21.0833ZM24.5024 21.0858L24.4784 22.0855C24.7477 22.0919 25.0082 21.9894 25.201 21.8013C25.3937 21.6131 25.5024 21.3551 25.5024 21.0858H24.5024ZM24.5 21.0857H23.5C23.5 21.6287 23.9333 22.0724 24.4761 22.0854L24.5 21.0857ZM24.5 21.0833V20.0833C23.9477 20.0833 23.5 20.531 23.5 21.0833H24.5ZM19.6667 21.0833V20.0833C19.1144 20.0833 18.6667 20.531 18.6667 21.0833H19.6667ZM19.6691 21.0833L20.6688 21.1067C20.6751 20.8375 20.5726 20.5771 20.3844 20.3845C20.1962 20.1919 19.9383 20.0833 19.6691 20.0833V21.0833ZM19.669 21.0858L19.6451 22.0855C19.9103 22.0918 20.1672 21.9925 20.3592 21.8094C20.5512 21.6263 20.6626 21.3744 20.6688 21.1091L19.669 21.0858ZM19.6667 21.0857H18.6667C18.6667 21.6287 19.0999 22.0724 19.6427 22.0854L19.6667 21.0857ZM14.8333 21.0833V20.0833C14.281 20.0833 13.8333 20.531 13.8333 21.0833H14.8333ZM14.8357 21.0833L15.8355 21.1067C15.8418 20.8375 15.7392 20.5771 15.5511 20.3845C15.3629 20.1919 15.105 20.0833 14.8357 20.0833V21.0833ZM14.8357 21.0858L14.8118 22.0855C15.077 22.0918 15.3339 21.9925 15.5259 21.8094C15.7179 21.6263 15.8292 21.3744 15.8354 21.1091L14.8357 21.0858ZM14.8333 21.0857H13.8333C13.8333 21.6287 14.2666 22.0724 14.8094 22.0854L14.8333 21.0857ZM10 15.25C9.44772 15.25 9 15.6977 9 16.25C9 16.8023 9.44772 17.25 10 17.25V15.25ZM29.3333 17.25C29.8856 17.25 30.3333 16.8023 30.3333 16.25C30.3333 15.6977 29.8856 15.25 29.3333 15.25V17.25ZM25.5 9C25.5 8.44772 25.0523 8 24.5 8C23.9477 8 23.5 8.44772 23.5 9H25.5ZM23.5 11.4167C23.5 11.969 23.9477 12.4167 24.5 12.4167C25.0523 12.4167 25.5 11.969 25.5 11.4167H23.5ZM15.8333 9C15.8333 8.44772 15.3856 8 14.8333 8C14.281 8 13.8333 8.44772 13.8333 9H15.8333ZM13.8333 11.4167C13.8333 11.969 14.281 12.4167 14.8333 12.4167C15.3856 12.4167 15.8333 11.969 15.8333 11.4167H13.8333ZM13.8669 12.4167H25.4669V10.4167H13.8669V12.4167ZM28.3333 15.2833V26.8833H30.3333V15.2833H28.3333ZM25.4669 29.75H13.8669V31.75H25.4669V29.75ZM11 26.8833V15.2833H9V26.8833H11ZM13.8669 29.75C13.1737 29.75 12.7138 29.7492 12.3608 29.7204C12.0195 29.6925 11.8672 29.6434 11.7732 29.5956L10.8653 31.3776C11.2883 31.5931 11.7331 31.6758 12.198 31.7137C12.6512 31.7508 13.2066 31.75 13.8669 31.75V29.75ZM9 26.8833C9 27.5435 8.99922 28.0988 9.03625 28.552C9.07422 29.0169 9.15689 29.4616 9.37239 29.8845L11.1544 28.9765C11.1065 28.8826 11.0575 28.7304 11.0296 28.3892C11.0008 28.0363 11 27.5765 11 26.8833H9ZM11.7732 29.5956C11.5068 29.4598 11.2903 29.2433 11.1544 28.9765L9.37239 29.8845C9.69988 30.5273 10.2222 31.0499 10.8653 31.3776L11.7732 29.5956ZM28.3333 26.8833C28.3333 27.5766 28.3326 28.0364 28.3038 28.3893C28.276 28.7306 28.227 28.8827 28.1792 28.9765L29.9612 29.8845C30.1768 29.4615 30.2593 29.0166 30.2972 28.5519C30.3342 28.0988 30.3333 27.5434 30.3333 26.8833H28.3333ZM25.4669 31.75C26.1271 31.75 26.6823 31.7508 27.1354 31.7137C27.6002 31.6757 28.0447 31.593 28.4676 31.3776L27.5596 29.5956C27.4655 29.6435 27.3134 29.6925 26.9724 29.7204C26.6198 29.7492 26.1601 29.75 25.4669 29.75V31.75ZM28.1792 28.9765C28.0436 29.2426 27.8267 29.4595 27.5596 29.5956L28.4676 31.3776C29.1099 31.0503 29.6334 30.5279 29.9612 29.8845L28.1792 28.9765ZM25.4669 12.4167C26.1601 12.4167 26.6198 12.4174 26.9725 12.4463C27.3134 12.4741 27.4655 12.5231 27.5596 12.5711L28.4676 10.7891C28.0447 10.5736 27.6002 10.4909 27.1354 10.4529C26.6823 10.4159 26.1271 10.4167 25.4669 10.4167V12.4167ZM30.3333 15.2833C30.3333 14.6231 30.3342 14.0678 30.2972 13.6148C30.2593 13.15 30.1767 12.7053 29.9612 12.2822L28.1792 13.1902C28.227 13.2841 28.276 13.4362 28.3038 13.7773C28.3326 14.1302 28.3333 14.5899 28.3333 15.2833H30.3333ZM27.5596 12.5711C27.8266 12.7071 28.0436 12.9241 28.1792 13.1902L29.9612 12.2822C29.6334 11.6389 29.11 11.1164 28.4676 10.7891L27.5596 12.5711ZM13.8669 10.4167C13.2067 10.4167 12.6512 10.4159 12.198 10.4529C11.7331 10.4909 11.2883 10.5735 10.8653 10.7891L11.7732 12.5711C11.8672 12.5232 12.0194 12.4742 12.3608 12.4463C12.7138 12.4174 13.1737 12.4167 13.8669 12.4167V10.4167ZM11 15.2833C11 14.59 11.0008 14.1303 11.0296 13.7775C11.0575 13.4364 11.1065 13.2842 11.1544 13.1902L9.37239 12.2822C9.1569 12.7052 9.07423 13.1498 9.03625 13.6146C8.99922 14.0678 9 14.623 9 15.2833H11ZM10.8653 10.7891C10.2221 11.1168 9.69983 11.6396 9.37239 12.2822L11.1544 13.1902C11.2904 12.9234 11.5069 12.7068 11.7732 12.5711L10.8653 10.7891ZM24.5 26.9167H24.5024V24.9167H24.5V26.9167ZM23.5027 25.8933L23.5026 25.8957L25.5021 25.9424L25.5021 25.94L23.5027 25.8933ZM24.5263 24.9194L24.5239 24.9193L24.4761 26.9187L24.4784 26.9188L24.5263 24.9194ZM25.5 25.919V25.9167H23.5V25.919H25.5ZM19.6667 26.9167H19.6691V24.9167H19.6667V26.9167ZM18.6694 25.8933L18.6693 25.8957L20.6688 25.9424L20.6688 25.94L18.6694 25.8933ZM19.6929 24.9194L19.6906 24.9193L19.6427 26.9187L19.6451 26.9188L19.6929 24.9194ZM20.6667 25.919V25.9167H18.6667V25.919H20.6667ZM14.8333 26.9167H14.8357V24.9167H14.8333V26.9167ZM13.836 25.8933L13.836 25.8957L15.8354 25.9424L15.8355 25.94L13.836 25.8933ZM14.8596 24.9194L14.8573 24.9193L14.8094 26.9187L14.8118 26.9188L14.8596 24.9194ZM15.8333 25.919V25.9167H13.8333V25.919H15.8333ZM23.5024 21.0833V21.0858H25.5024V21.0833H23.5024ZM24.5263 20.086L24.5239 20.086L24.4761 22.0854L24.4784 22.0855L24.5263 20.086ZM25.5 21.0857V21.0833H23.5V21.0857H25.5ZM24.5 22.0833H24.5024V20.0833H24.5V22.0833ZM19.6667 22.0833H19.6691V20.0833H19.6667V22.0833ZM18.6694 21.06L18.6693 21.0624L20.6688 21.1091L20.6688 21.1067L18.6694 21.06ZM19.6929 20.086L19.6906 20.086L19.6427 22.0854L19.6451 22.0855L19.6929 20.086ZM20.6667 21.0857V21.0833H18.6667V21.0857H20.6667ZM14.8333 22.0833H14.8357V20.0833H14.8333V22.0833ZM13.836 21.06L13.836 21.0624L15.8354 21.1091L15.8355 21.1067L13.836 21.06ZM14.8596 20.086L14.8573 20.086L14.8094 22.0854L14.8118 22.0855L14.8596 20.086ZM15.8333 21.0857V21.0833H13.8333V21.0857H15.8333ZM10 17.25H29.3333V15.25H10V17.25ZM23.5 9V11.4167H25.5V9H23.5ZM13.8333 9V11.4167H15.8333V9H13.8333Z" fill="white"/>
</svg>
