<svg width="40" height="40" viewBox="0 0 40 40" fill="none" xmlns="http://www.w3.org/2000/svg">
<path d="M30.5 29.3333C30.5 27.3014 28.5521 25.5728 25.8333 24.9321M23.5 29.3333C23.5 26.756 20.366 24.6667 16.5 24.6667C12.634 24.6667 9.5 26.756 9.5 29.3333M23.5 21.1667C26.0773 21.1667 28.1667 19.0773 28.1667 16.5C28.1667 13.9227 26.0773 11.8333 23.5 11.8333M16.5 21.1667C13.9227 21.1667 11.8333 19.0773 11.8333 16.5C11.8333 13.9227 13.9227 11.8333 16.5 11.8333C19.0773 11.8333 21.1667 13.9227 21.1667 16.5C21.1667 19.0773 19.0773 21.1667 16.5 21.1667Z" stroke="white" stroke-width="2" stroke-linecap="round" stroke-linejoin="round"/>
</svg>
