<svg width="40" height="40" viewBox="0 0 40 40" fill="none" xmlns="http://www.w3.org/2000/svg">
<circle cx="25" cy="14" r="4" fill="#B72025"/>
<path d="M22.0468 11.304C21.3994 11.1063 20.7121 11 20 11C16.134 11 13 14.134 13 18V21.7224C13 21.9002 12.9294 22.0706 12.8037 22.1963L12.293 22.7071C12.1054 22.8947 12 23.1489 12 23.4141V24C12 24.5523 12.4477 25 13 25H27C27.5523 25 28 24.5523 28 24V23.4142C28 23.149 27.8945 22.8946 27.707 22.707L27.1963 22.1963C27.0706 22.0706 27 21.9002 27 21.7224V18C27 17.8236 26.9936 17.6487 26.9805 17.4762M23 25V26C23 27.6569 21.6569 29 20 29C18.3431 29 17 27.6569 17 26V25H23ZM29 14C29 16.2091 27.2091 18 25 18C22.7909 18 21 16.2091 21 14C21 11.7909 22.7909 10 25 10C27.2091 10 29 11.7909 29 14Z" stroke="white" stroke-width="2" stroke-linecap="round" stroke-linejoin="round"/>
</svg>
