<svg width="40" height="40" viewBox="0 0 40 40" fill="none" xmlns="http://www.w3.org/2000/svg">
<path d="M29.0459 16.6667L28.6492 16.446C28.5876 16.4117 28.5568 16.3945 28.527 16.3767C28.2312 16.1995 27.982 15.9542 27.8 15.6612C27.7817 15.6317 27.7637 15.6013 27.7285 15.5402L27.7283 15.5399C27.6931 15.4789 27.6754 15.4482 27.659 15.4176C27.4957 15.1129 27.4079 14.7735 27.4026 14.4278C27.4021 14.3967 27.4027 14.3648 27.4036 14.3077L27.404 14.2868L27.4116 13.8351C27.4241 13.0919 27.4303 12.7204 27.3262 12.3872C27.2342 12.0924 27.0804 11.8207 26.8748 11.5903C26.6428 11.3303 26.3212 11.1449 25.6794 10.7751L25.676 10.7732L25.1411 10.4649C24.4988 10.0948 24.1776 9.90982 23.8366 9.83925C23.535 9.77682 23.2235 9.77931 22.9229 9.84679C22.584 9.92286 22.2671 10.1126 21.6344 10.4915L21.6295 10.4944L21.2462 10.7239C21.1856 10.7602 21.155 10.7783 21.1246 10.7952C20.8231 10.9628 20.486 11.0561 20.1413 11.0671C20.1065 11.0682 20.0712 11.0682 20.0005 11.0682H19.9996C19.9294 11.0682 19.8945 11.0682 19.8598 11.0671C19.5143 11.056 19.1761 10.9623 18.8742 10.794C18.8449 10.7777 18.8158 10.7602 18.7594 10.7263L18.7528 10.7224L18.367 10.4908L18.3641 10.4891C17.7276 10.1069 17.409 9.91567 17.0684 9.83925C16.7666 9.77154 16.4536 9.76927 16.1509 9.8325C15.8086 9.90399 15.4864 10.0909 14.8424 10.4648L14.3141 10.7714C13.6733 11.1432 13.3534 11.3291 13.1223 11.5893C12.9178 11.8194 12.7646 12.0905 12.6732 12.3845C12.5697 12.7168 12.5756 13.0872 12.588 13.828L12.5958 14.288C12.5969 14.3577 12.5977 14.3925 12.5972 14.4268C12.5921 14.7732 12.5039 15.1133 12.3402 15.4186C12.324 15.4488 12.3066 15.4789 12.2717 15.5392L12.2717 15.5393C12.2368 15.5996 12.2194 15.6297 12.2014 15.6589C12.0186 15.9534 11.7678 16.1998 11.4701 16.3773C11.4407 16.3949 11.4104 16.4118 11.3494 16.4456L10.9577 16.6626L10.9576 16.6627C10.306 17.0238 9.98026 17.2043 9.74323 17.4615C9.53352 17.689 9.37474 17.9589 9.27804 18.2528C9.16887 18.5846 9.16972 18.9567 9.1714 19.6998L9.17141 19.7027L9.17279 20.3117L9.17281 20.3183C9.17448 21.054 9.17532 21.4228 9.28454 21.7518C9.38147 22.0438 9.53946 22.3117 9.74799 22.5379C9.98344 22.7932 10.3066 22.973 10.9519 23.332L10.954 23.3332L11.3422 23.5491L11.3476 23.5521C11.4101 23.5869 11.4424 23.6048 11.4734 23.6235C11.7684 23.8011 12.0164 24.0466 12.1977 24.3394C12.2172 24.371 12.236 24.4039 12.2736 24.4695L12.2736 24.4695C12.3107 24.5344 12.3295 24.5668 12.3467 24.5993C12.5056 24.9001 12.5914 25.2341 12.5972 25.5743C12.5979 25.611 12.5973 25.6485 12.596 25.7232L12.5886 26.1647L12.5885 26.1663C12.576 26.9085 12.5697 27.2798 12.6737 27.6127C12.7657 27.9075 12.9199 28.1792 13.1255 28.4096C13.3579 28.67 13.6795 28.8557 14.3236 29.2268L14.8584 29.535C15.5007 29.9051 15.8223 30.0901 16.1633 30.1607C16.4649 30.2231 16.7763 30.2206 17.0769 30.1531C17.4159 30.077 17.7329 29.8872 18.3661 29.508L18.3702 29.5056L18.7535 29.276C18.8142 29.2397 18.8447 29.2216 18.8751 29.2048C19.1765 29.0371 19.5135 28.9439 19.8582 28.9328C19.893 28.9317 19.9283 28.9317 19.999 28.9317C20.0698 28.9317 20.1057 28.9317 20.1405 28.9328C20.486 28.9439 20.8237 29.0375 21.1256 29.2058C21.1561 29.2228 21.1866 29.241 21.2473 29.2775L21.633 29.5091L21.6338 29.5095C22.2718 29.8925 22.5908 30.084 22.9318 30.1605C23.2335 30.2283 23.546 30.2307 23.8488 30.1674C24.191 30.096 24.5134 29.909 25.1575 29.5352L25.6858 29.2286C26.3265 28.8567 26.6465 28.6708 26.8776 28.4106C27.0821 28.1805 27.2353 27.9094 27.3268 27.6154C27.4302 27.2831 27.4242 26.9127 27.4117 26.172L27.404 25.712L27.4036 25.6888C27.4027 25.6341 27.4021 25.6035 27.4026 25.5732C27.4077 25.2268 27.4958 24.8867 27.6595 24.5814C27.6757 24.5512 27.6931 24.521 27.728 24.4607C27.7628 24.4003 27.7806 24.3701 27.7986 24.341C27.9814 24.0465 28.2319 23.8002 28.5296 23.6227C28.5581 23.6057 28.5878 23.5892 28.6449 23.5576L28.6508 23.5543L29.0425 23.3373C29.6942 22.9761 30.0198 22.7956 30.2568 22.5384C30.4665 22.3109 30.625 22.0411 30.7217 21.7472C30.831 21.4149 30.8306 21.0423 30.8289 20.2973L30.8275 19.6883C30.8258 18.9482 30.8249 18.578 30.7154 18.248C30.6184 17.9561 30.4603 17.6882 30.2518 17.462C30.0161 17.2064 29.6927 17.0265 29.0459 16.6667Z" stroke="white" stroke-width="2" stroke-linecap="round" stroke-linejoin="round"/>
</svg>
