<svg width="40" height="40" viewBox="0 0 40 40" fill="none" xmlns="http://www.w3.org/2000/svg">
<path d="M25.8333 30.5C25.8333 27.2783 23.2217 24.6667 20 24.6667C16.7783 24.6667 14.1667 27.2783 14.1667 30.5M20 21.1667C18.067 21.1667 16.5 19.5997 16.5 17.6667C16.5 15.7337 18.067 14.1667 20 14.1667C21.933 14.1667 23.5 15.7337 23.5 17.6667C23.5 19.5997 21.933 21.1667 20 21.1667ZM30.5 13.2333V26.7666C30.5 28.0734 30.5002 28.7269 30.2459 29.226C30.0222 29.6651 29.6648 30.0219 29.2258 30.2456C28.7266 30.5 28.0737 30.5 26.7669 30.5H13.2336C11.9268 30.5 11.2729 30.5 10.7738 30.2456C10.3347 30.0219 9.97802 29.6651 9.75432 29.226C9.5 28.7269 9.5 28.0734 9.5 26.7666V13.2333C9.5 11.9265 9.5 11.2732 9.75432 10.774C9.97802 10.335 10.3347 9.97802 10.7738 9.75432C11.2729 9.5 11.9268 9.5 13.2336 9.5H26.7669C28.0737 9.5 28.7266 9.5 29.2258 9.75432C29.6648 9.97802 30.0222 10.335 30.2459 10.774C30.5002 11.2732 30.5 11.9265 30.5 13.2333Z" stroke="white" stroke-width="2" stroke-linecap="round" stroke-linejoin="round"/>
</svg>
