<svg width="24" height="24" viewBox="0 0 24 24" fill="none" xmlns="http://www.w3.org/2000/svg">
<path d="M9 20C9 20.5523 9.44772 21 10 21H14C14.5523 21 15 20.5523 15 20V15H20C20.5523 15 21 14.5523 21 14V10C21 9.44772 20.5523 9 20 9H15V4C15 3.44772 14.5523 3 14 3H10C9.44772 3 9 3.44772 9 4V9H4C3.44772 9 3 9.44772 3 10V14C3 14.5523 3.44772 15 4 15H9V20Z" stroke="url(#paint0_linear_103_73)" stroke-width="2" stroke-linecap="round" stroke-linejoin="round"/>
<defs>
<linearGradient id="paint0_linear_103_73" x1="8.04255" y1="0.866667" x2="8.79016" y2="26.7021" gradientUnits="userSpaceOnUse">
<stop stop-color="#215BEF"/>
<stop offset="1" stop-color="#86F8FF"/>
</linearGradient>
</defs>
</svg>
