<svg width="20" height="20" viewBox="0 0 20 20" fill="none" xmlns="http://www.w3.org/2000/svg">
<path d="M17.5179 7.38906L17.1882 7.21618C17.137 7.18934 17.1114 7.17587 17.0866 7.1619C16.8407 7.02309 16.6337 6.83095 16.4824 6.60149C16.4672 6.5784 16.4523 6.55454 16.423 6.50669C16.3936 6.45877 16.3788 6.43471 16.3652 6.4107C16.2295 6.17198 16.1565 5.90616 16.1521 5.63539C16.1517 5.61098 16.1522 5.586 16.153 5.54124L16.1533 5.52495L16.1596 5.17109C16.17 4.58894 16.1751 4.29792 16.0887 4.03693C16.0122 3.80605 15.8844 3.5932 15.7135 3.41273C15.5207 3.20908 15.2534 3.06389 14.72 2.77419L14.7172 2.77268L14.2726 2.53121C13.7388 2.24132 13.4718 2.09643 13.1885 2.04115C12.9378 1.99225 12.6789 1.9942 12.4291 2.04706C12.1475 2.10664 11.8841 2.25528 11.3582 2.55204L11.3542 2.55431L11.0356 2.73409C10.9853 2.76252 10.9598 2.7767 10.9345 2.78993C10.684 2.92122 10.4038 2.99428 10.1173 3.00294C10.0884 3.00382 10.059 3.00382 10.0003 3.00382H9.99958C9.94121 3.00382 9.91219 3.00382 9.88337 3.00294C9.59623 2.99424 9.31518 2.92085 9.06424 2.78902C9.03988 2.77622 9.01567 2.76253 8.96882 2.73601L8.96335 2.73292L8.64275 2.55152L8.64035 2.55015C8.11132 2.25082 7.84656 2.10101 7.56348 2.04115C7.31266 1.98811 7.05251 1.98634 6.80089 2.03587C6.51646 2.09186 6.2487 2.2383 5.71342 2.53111L5.27435 2.77129C4.74185 3.06257 4.47598 3.20815 4.28388 3.41194C4.11393 3.59222 3.98663 3.80459 3.9106 4.03486C3.82465 4.29515 3.8295 4.5853 3.83986 5.1655L3.84629 5.52585C3.84726 5.58042 3.84791 5.60773 3.84749 5.63457C3.84323 5.90589 3.76992 6.17228 3.63387 6.41143C3.62042 6.43507 3.60593 6.45871 3.57699 6.50592L3.57696 6.50597C3.54799 6.55325 3.53352 6.57683 3.51849 6.59964C3.36658 6.83033 3.15817 7.02337 2.91075 7.16242C2.88628 7.17618 2.86115 7.1894 2.81047 7.21587L2.48494 7.3859L2.48481 7.38596C1.94327 7.66881 1.67255 7.81021 1.47556 8.01165C1.30127 8.18988 1.16931 8.40124 1.08894 8.63147C0.998213 8.89139 0.998915 9.1828 1.00032 9.76489L1.00032 9.76719L1.00147 10.2442L1.00149 10.2494C1.00287 10.8256 1.00357 11.1145 1.09435 11.3723C1.1749 11.601 1.30621 11.8108 1.47951 11.988C1.6752 12.188 1.94376 12.3288 2.4801 12.61L2.48186 12.6109L2.80449 12.7801L2.80891 12.7824C2.8609 12.8097 2.8877 12.8237 2.91345 12.8383C3.15863 12.9775 3.3648 13.1697 3.51541 13.3991C3.53169 13.4239 3.54731 13.4496 3.57854 13.501C3.60939 13.5518 3.625 13.5772 3.63927 13.6027C3.77132 13.8383 3.84268 14.0999 3.8475 14.3664C3.84802 14.3952 3.84754 14.4245 3.84649 14.483L3.8403 14.8288L3.84027 14.8301C3.82986 15.4115 3.82465 15.7023 3.91104 15.9631C3.98752 16.194 4.11564 16.4068 4.28652 16.5873C4.47966 16.7913 4.74699 16.9367 5.28227 17.2274L5.72677 17.4688C6.26055 17.7587 6.52783 17.9036 6.8112 17.9589C7.0619 18.0078 7.32071 18.0058 7.57051 17.9529C7.85226 17.8933 8.11572 17.7446 8.64201 17.4476L8.64539 17.4457L8.96396 17.266C9.01435 17.2375 9.03971 17.2234 9.06496 17.2101C9.31551 17.0788 9.59553 17.0058 9.88205 16.9971C9.91093 16.9962 9.9403 16.9962 9.99904 16.9962C10.0579 16.9962 10.0877 16.9962 10.1167 16.9971C10.4038 17.0058 10.6845 17.0791 10.9354 17.2109C10.9607 17.2242 10.986 17.2385 11.0365 17.2671L11.3571 17.4485L11.3577 17.4488C11.8879 17.7488 12.153 17.8989 12.4365 17.9588C12.6873 18.0118 12.947 18.0137 13.1986 17.9642C13.483 17.9082 13.7509 17.7617 14.2862 17.4689L14.7253 17.2288C15.2578 16.9375 15.5237 16.7919 15.7158 16.5881C15.8858 16.4078 16.0131 16.1955 16.0891 15.9652C16.1751 15.7049 16.1701 15.4148 16.1597 14.8346L16.1533 14.4742L16.153 14.4561C16.1522 14.4133 16.1518 14.3893 16.1521 14.3656C16.1564 14.0942 16.2296 13.8278 16.3656 13.5886C16.3791 13.565 16.3936 13.5413 16.4225 13.4941C16.4515 13.4468 16.4663 13.4232 16.4813 13.4003C16.6332 13.1697 16.8414 12.9767 17.0888 12.8377C17.1125 12.8244 17.1372 12.8115 17.1846 12.7867L17.1895 12.7842L17.515 12.6141C18.0566 12.3312 18.3273 12.1898 18.5243 11.9884C18.6985 11.8101 18.8303 11.5988 18.9106 11.3686C19.0015 11.1083 19.0011 10.8165 18.9997 10.2329L18.9985 9.7559C18.9971 9.17618 18.9964 8.88624 18.9053 8.62774C18.8248 8.39906 18.6934 8.1892 18.5201 8.01205C18.3242 7.81181 18.0554 7.67089 17.5179 7.38906Z" stroke="#D5D5D5" stroke-width="2" stroke-linecap="round" stroke-linejoin="round"/>
</svg>
